--40005LOG 12:31:04:808651000 Waiting for file /home/seluser/videos/vid_chrome_or_firefox_40005* to be created...
Won't start video recording due to VIDEO env var false
ffmpeg version 2.8.17-0ubuntu0.1 Copyright (c) 2000-2020 the FFmpeg developers
  built with gcc 5.4.0 (Ubuntu 5.4.0-6ubuntu1~16.04.12) 20160609
  configuration: --prefix=/usr --extra-version=0ubuntu0.1 --build-suffix=-ffmpeg --toolchain=hardened --libdir=/usr/lib/x86_64-linux-gnu --incdir=/usr/include/x86_64-linux-gnu --cc=cc --cxx=g++ --enable-gpl --enable-shared --disable-stripping --disable-decoder=libopenjpeg --disable-decoder=libschroedinger --enable-avresample --enable-avisynth --enable-gnutls --enable-ladspa --enable-libass --enable-libbluray --enable-libbs2b --enable-libcaca --enable-libcdio --enable-libflite --enable-libfontconfig --enable-libfreetype --enable-libfribidi --enable-libgme --enable-libgsm --enable-libmodplug --enable-libmp3lame --enable-libopenjpeg --enable-libopus --enable-libpulse --enable-librtmp --enable-libschroedinger --enable-libshine --enable-libsnappy --enable-libsoxr --enable-libspeex --enable-libssh --enable-libtheora --enable-libtwolame --enable-libvorbis --enable-libvpx --enable-libwavpack --enable-libwebp --enable-libx265 --enable-libxvid --enable-libzvbi --enable-openal --enable-opengl --enable-x11grab --enable-libdc1394 --enable-libiec61883 --enable-libzmq --enable-frei0r --enable-libx264 --enable-libopencv
  libavutil      54. 31.100 / 54. 31.100
  libavcodec     56. 60.100 / 56. 60.100
  libavformat    56. 40.101 / 56. 40.101
  libavdevice    56.  4.100 / 56.  4.100
  libavfilter     5. 40.101 /  5. 40.101
  libavresample   2.  1.  0 /  2.  1.  0
  libswscale      3.  1.101 /  3.  1.101
  libswresample   1.  2.101 /  1.  2.101
  libpostproc    53.  3.100 / 53.  3.100
Input #0, x11grab, from ':55.0':
  Duration: N/A, start: 1603881065.213015, bitrate: N/A
    Stream #0:0: Video: rawvideo (BGR[0] / 0x524742), bgr0, 1366x768, 10 fps, 10 tbr, 1000k tbn, 10 tbc
[libx264 @ 0x164d320] using cpu capabilities: MMX2 SSE2Fast SSSE3 SSE4.2 AVX FMA3 AVX2 LZCNT BMI2
[libx264 @ 0x164d320] profile Constrained Baseline, level 3.2
[libx264 @ 0x164d320] 264 - core 148 r2643 5c65704 - H.264/MPEG-4 AVC codec - Copyleft 2003-2015 - http://www.videolan.org/x264.html - options: cabac=0 ref=1 deblock=0:0:0 analyse=0:0 me=dia subme=0 psy=1 psy_rd=1.00:0.00 mixed_ref=0 me_range=16 chroma_me=1 trellis=0 8x8dct=0 cqm=0 deadzone=21,11 fast_pskip=1 chroma_qp_offset=0 threads=3 lookahead_threads=1 sliced_threads=0 nr=0 decimate=1 interlaced=0 bluray_compat=0 constrained_intra=0 bframes=0 weightp=0 keyint=250 keyint_min=10 scenecut=0 intra_refresh=0 rc=crf mbtree=0 crf=23.0 qcomp=0.60 qpmin=0 qpmax=69 qpstep=4 ip_ratio=1.40 aq=0
Output #0, matroska, to '/home/seluser/videos/vid_chrome_or_firefox_40005.mkv':
  Metadata:
    encoder         : Lavf56.40.101
    Stream #0:0: Video: h264 (libx264) (H264 / 0x34363248), yuv420p, 1366x768, q=-1--1, 10 fps, 1k tbn, 10 tbc
    Metadata:
      encoder         : Lavc56.60.100 libx264
Stream mapping:
  Stream #0:0 -> #0:0 (rawvideo (native) -> h264 (libx264))
Press [q] to stop, [?] for help
[swscaler @ 0x1658ca0] Warning: data is not aligned! This can lead to a speedloss
frame=   10 fps=0.0 q=9.0 size=      39kB time=00:00:00.60 bitrate= 537.3kbits/s    
frame=   20 fps= 20 q=9.0 size=      41kB time=00:00:01.60 bitrate= 212.4kbits/s    
frame=   23 fps= 15 q=9.0 size=      42kB time=00:00:01.90 bitrate= 181.6kbits/s    
frame=   28 fps= 13 q=9.0 size=      43kB time=00:00:02.40 bitrate= 148.3kbits/s    
frame=   36 fps= 14 q=9.0 size=      45kB time=00:00:03.20 bitrate= 114.4kbits/s    
frame=   41 fps= 13 q=9.0 size=      46kB time=00:00:03.70 bitrate= 101.6kbits/s    
frame=   46 fps= 12 q=9.0 size=      47kB time=00:00:04.20 bitrate=  91.3kbits/s    
frame=   52 fps= 12 q=9.0 size=      48kB time=00:00:04.80 bitrate=  82.0kbits/s    
frame=   55 fps= 11 q=10.0 size=      49kB time=00:00:05.10 bitrate=  78.6kbits/s    
frame=   60 fps= 11 q=10.0 size=      54kB time=00:00:05.60 bitrate=  79.1kbits/s    
frame=   66 fps= 11 q=13.0 size=      58kB time=00:00:06.20 bitrate=  76.4kbits/s    
frame=   70 fps= 11 q=10.0 size=      73kB time=00:00:06.60 bitrate=  90.7kbits/s    
frame=   77 fps= 11 q=12.0 size=     150kB time=00:00:07.30 bitrate= 168.4kbits/s    
frame=   85 fps= 11 q=9.0 size=     194kB time=00:00:08.10 bitrate= 196.2kbits/s    
frame=   91 fps= 11 q=9.0 size=     195kB time=00:00:08.70 bitrate= 183.3kbits/s    
frame=   96 fps= 11 q=9.0 size=     195kB time=00:00:09.20 bitrate= 173.6kbits/s    
frame=  102 fps= 11 q=9.0 size=     195kB time=00:00:09.80 bitrate= 163.1kbits/s    
frame=  107 fps= 11 q=9.0 size=     195kB time=00:00:10.30 bitrate= 155.5kbits/s    
frame=  114 fps= 11 q=9.0 size=     196kB time=00:00:11.00 bitrate= 145.8kbits/s    
frame=  120 fps= 11 q=9.0 size=     196kB time=00:00:11.60 bitrate= 138.4kbits/s    
frame=  126 fps= 11 q=9.0 size=     196kB time=00:00:12.20 bitrate= 131.8kbits/s    
frame=  132 fps= 11 q=9.0 size=     197kB time=00:00:12.80 bitrate= 125.8kbits/s    
frame=  137 fps= 11 q=9.0 size=     197kB time=00:00:13.30 bitrate= 121.3kbits/s    
frame=  143 fps= 11 q=9.0 size=     197kB time=00:00:13.90 bitrate= 116.2kbits/s    
frame=  148 fps= 11 q=9.0 size=     197kB time=00:00:14.40 bitrate= 112.3kbits/s    
frame=  154 fps= 11 q=9.0 size=     198kB time=00:00:15.00 bitrate= 107.9kbits/s    
frame=  160 fps= 11 q=9.0 size=     198kB time=00:00:15.60 bitrate= 103.9kbits/s    
frame=  165 fps= 11 q=9.0 size=     198kB time=00:00:16.10 bitrate= 100.9kbits/s    
frame=  171 fps= 11 q=9.0 size=     198kB time=00:00:16.70 bitrate=  97.3kbits/s    
frame=  177 fps= 11 q=9.0 size=     199kB time=00:00:17.30 bitrate=  94.1kbits/s    
frame=  182 fps= 11 q=9.0 size=     199kB time=00:00:17.80 bitrate=  91.6kbits/s    
frame=  188 fps= 11 q=9.0 size=     199kB time=00:00:18.40 bitrate=  88.7kbits/s    
frame=  193 fps= 11 q=9.0 size=     200kB time=00:00:18.90 bitrate=  86.5kbits/s    
frame=  199 fps= 11 q=9.0 size=     200kB time=00:00:19.50 bitrate=  83.9kbits/s    
frame=  204 fps= 11 q=9.0 size=     200kB time=00:00:20.00 bitrate=  82.0kbits/s    
frame=  210 fps= 10 q=9.0 size=     200kB time=00:00:20.60 bitrate=  79.7kbits/s    
frame=  215 fps= 10 q=9.0 size=     201kB time=00:00:21.10 bitrate=  77.8kbits/s    
frame=  221 fps= 10 q=9.0 size=     201kB time=00:00:21.70 bitrate=  75.8kbits/s    
frame=  226 fps= 10 q=9.0 size=     201kB time=00:00:22.20 bitrate=  74.2kbits/s    
frame=  232 fps= 10 q=9.0 size=     201kB time=00:00:22.80 bitrate=  72.3kbits/s    
frame=  237 fps= 10 q=9.0 size=     202kB time=00:00:23.30 bitrate=  70.9kbits/s    
frame=  243 fps= 10 q=9.0 size=     202kB time=00:00:23.90 bitrate=  69.2kbits/s    
frame=  249 fps= 10 q=9.0 size=     202kB time=00:00:24.50 bitrate=  67.6kbits/s    
frame=  254 fps= 10 q=18.0 size=     202kB time=00:00:25.00 bitrate=  66.3kbits/s    
frame=  259 fps= 10 q=10.0 size=     331kB time=00:00:25.50 bitrate= 106.2kbits/s    
frame=  265 fps= 10 q=9.0 size=     331kB time=00:00:26.10 bitrate= 103.9kbits/s    
frame=  271 fps= 10 q=9.0 size=     331kB time=00:00:26.70 bitrate= 101.6kbits/s    
frame=  277 fps= 10 q=9.0 size=     331kB time=00:00:27.30 bitrate=  99.4kbits/s    
frame=  283 fps= 10 q=9.0 size=     331kB time=00:00:27.90 bitrate=  97.3kbits/s    
frame=  289 fps= 10 q=9.0 size=     332kB time=00:00:28.50 bitrate=  95.3kbits/s    
frame=  294 fps= 10 q=9.0 size=     332kB time=00:00:29.00 bitrate=  93.7kbits/s    
frame=  299 fps= 10 q=9.0 size=     332kB time=00:00:29.50 bitrate=  92.1kbits/s    
frame=  304 fps= 10 q=9.0 size=     332kB time=00:00:30.00 bitrate=  90.7kbits/s    
frame=  311 fps= 10 q=9.0 size=     332kB time=00:00:30.70 bitrate=  88.6kbits/s    
frame=  316 fps= 10 q=9.0 size=     332kB time=00:00:31.20 bitrate=  87.3kbits/s    
frame=  322 fps= 10 q=9.0 size=     332kB time=00:00:31.80 bitrate=  85.6kbits/s    
frame=  328 fps= 10 q=9.0 size=     333kB time=00:00:32.40 bitrate=  84.1kbits/s    
frame=  334 fps= 10 q=9.0 size=     333kB time=00:00:33.00 bitrate=  82.6kbits/s    
frame=  339 fps= 10 q=9.0 size=     333kB time=00:00:33.50 bitrate=  81.4kbits/s    
frame=  345 fps= 10 q=9.0 size=     333kB time=00:00:34.10 bitrate=  80.0kbits/s    
frame=  350 fps= 10 q=9.0 size=     333kB time=00:00:34.60 bitrate=  78.9kbits/s    
frame=  356 fps= 10 q=9.0 size=     334kB time=00:00:35.20 bitrate=  77.6kbits/s    
frame=  362 fps= 10 q=9.0 size=     334kB time=00:00:35.80 bitrate=  76.3kbits/s    
frame=  368 fps= 10 q=9.0 size=     334kB time=00:00:36.40 bitrate=  75.1kbits/s    
frame=  373 fps= 10 q=9.0 size=     334kB time=00:00:36.90 bitrate=  74.2kbits/s    
frame=  378 fps= 10 q=9.0 size=     334kB time=00:00:37.40 bitrate=  73.2kbits/s    
frame=  385 fps= 10 q=9.0 size=     334kB time=00:00:38.10 bitrate=  71.9kbits/s    
frame=  391 fps= 10 q=9.0 size=     334kB time=00:00:38.70 bitrate=  70.8kbits/s    
frame=  397 fps= 10 q=9.0 size=     335kB time=00:00:39.30 bitrate=  69.8kbits/s    
frame=  403 fps= 10 q=9.0 size=     335kB time=00:00:39.90 bitrate=  68.8kbits/s    
frame=  408 fps= 10 q=9.0 size=     335kB time=00:00:40.40 bitrate=  67.9kbits/s    
frame=  413 fps= 10 q=9.0 size=     335kB time=00:00:40.90 bitrate=  67.1kbits/s    
frame=  419 fps= 10 q=9.0 size=     335kB time=00:00:41.50 bitrate=  66.2kbits/s    
frame=  426 fps= 10 q=9.0 size=     335kB time=00:00:42.20 bitrate=  65.1kbits/s    
frame=  432 fps= 10 q=9.0 size=     336kB time=00:00:42.80 bitrate=  64.2kbits/s    
frame=  437 fps= 10 q=9.0 size=     336kB time=00:00:43.30 bitrate=  63.5kbits/s    
frame=  442 fps= 10 q=9.0 size=     336kB time=00:00:43.80 bitrate=  62.8kbits/s    
frame=  449 fps= 10 q=9.0 size=     336kB time=00:00:44.50 bitrate=  61.9kbits/s    
frame=  454 fps= 10 q=9.0 size=     336kB time=00:00:45.00 bitrate=  61.2kbits/s    
frame=  460 fps= 10 q=9.0 size=     336kB time=00:00:45.60 bitrate=  60.4kbits/s    
frame=  465 fps= 10 q=9.0 size=     337kB time=00:00:46.10 bitrate=  59.8kbits/s    
frame=  471 fps= 10 q=9.0 size=     337kB time=00:00:46.70 bitrate=  59.1kbits/s    
frame=  475 fps= 10 q=9.0 size=     337kB time=00:00:47.10 bitrate=  58.6kbits/s    
frame=  480 fps= 10 q=9.0 size=     337kB time=00:00:47.60 bitrate=  58.0kbits/s    
frame=  485 fps= 10 q=9.0 size=     337kB time=00:00:48.10 bitrate=  57.4kbits/s    
frame=  489 fps= 10 q=9.0 size=     337kB time=00:00:48.50 bitrate=  57.0kbits/s    
frame=  493 fps= 10 q=9.0 size=     337kB time=00:00:48.90 bitrate=  56.5kbits/s    
frame=  497 fps= 10 q=9.0 size=     338kB time=00:00:49.30 bitrate=  56.1kbits/s    
frame=  501 fps= 10 q=9.0 size=     338kB time=00:00:49.70 bitrate=  55.7kbits/s    
frame=  507 fps= 10 q=13.0 size=     466kB time=00:00:50.30 bitrate=  75.9kbits/s    
frame=  512 fps= 10 q=9.0 size=     466kB time=00:00:50.80 bitrate=  75.2kbits/s    
frame=  520 fps= 10 q=9.0 size=     466kB time=00:00:51.60 bitrate=  74.0kbits/s    
frame=  526 fps= 10 q=9.0 size=     467kB time=00:00:52.20 bitrate=  73.2kbits/s    
frame=  532 fps= 10 q=9.0 size=     467kB time=00:00:52.80 bitrate=  72.4kbits/s    
frame=  543 fps= 10 q=9.0 size=     467kB time=00:00:53.90 bitrate=  71.0kbits/s    
frame=  552 fps= 10 q=9.0 size=     467kB time=00:00:54.80 bitrate=  69.8kbits/s    
frame=  557 fps= 10 q=9.0 size=     467kB time=00:00:55.30 bitrate=  69.3kbits/s    
frame=  562 fps= 10 q=9.0 size=     468kB time=00:00:55.80 bitrate=  68.6kbits/s    
frame=  567 fps= 10 q=9.0 size=     468kB time=00:00:56.30 bitrate=  68.1kbits/s    
frame=  572 fps= 10 q=9.0 size=     468kB time=00:00:56.80 bitrate=  67.5kbits/s    
frame=  578 fps= 10 q=9.0 size=     468kB time=00:00:57.40 bitrate=  66.8kbits/s    
frame=  584 fps= 10 q=9.0 size=     468kB time=00:00:58.00 bitrate=  66.1kbits/s    
frame=  589 fps= 10 q=9.0 size=     468kB time=00:00:58.50 bitrate=  65.6kbits/s    
frame=  594 fps= 10 q=9.0 size=     469kB time=00:00:59.00 bitrate=  65.1kbits/s    
frame=  598 fps= 10 q=9.0 size=     469kB time=00:00:59.40 bitrate=  64.6kbits/s    
frame=  601 fps= 10 q=9.0 size=     469kB time=00:00:59.70 bitrate=  64.3kbits/s    
frame=  604 fps= 10 q=9.0 size=     469kB time=00:01:00.00 bitrate=  64.0kbits/s    
frame=  606 fps=9.9 q=9.0 size=     469kB time=00:01:00.20 bitrate=  63.8kbits/s    
frame=  609 fps=9.9 q=9.0 size=     469kB time=00:01:00.50 bitrate=  63.5kbits/s    
frame=  614 fps=9.9 q=9.0 size=     469kB time=00:01:01.00 bitrate=  63.0kbits/s    
frame=  618 fps=9.9 q=9.0 size=     469kB time=00:01:01.40 bitrate=  62.6kbits/s    
frame=  622 fps=9.8 q=9.0 size=     469kB time=00:01:01.80 bitrate=  62.2kbits/s    
frame=  625 fps=9.7 q=10.0 size=     470kB time=00:01:02.10 bitrate=  62.0kbits/s    
frame=  628 fps=9.7 q=9.0 size=     471kB time=00:01:02.40 bitrate=  61.8kbits/s    
frame=  631 fps=9.6 q=9.0 size=     471kB time=00:01:02.70 bitrate=  61.5kbits/s    
frame=  634 fps=9.6 q=10.0 size=     471kB time=00:01:03.00 bitrate=  61.2kbits/s    
frame=  638 fps=9.6 q=9.0 size=     472kB time=00:01:03.40 bitrate=  61.0kbits/s    
frame=  643 fps=9.6 q=9.0 size=     472kB time=00:01:03.90 bitrate=  60.5kbits/s    
frame=  651 fps=9.6 q=9.0 size=     472kB time=00:01:04.70 bitrate=  59.8kbits/s    
frame=  658 fps=9.6 q=9.0 size=     472kB time=00:01:05.40 bitrate=  59.2kbits/s    
frame=  665 fps=9.7 q=9.0 size=     473kB time=00:01:06.10 bitrate=  58.6kbits/s    
frame=  672 fps=9.7 q=9.0 size=     473kB time=00:01:06.80 bitrate=  58.0kbits/s    
frame=  680 fps=9.7 q=9.0 size=     473kB time=00:01:07.60 bitrate=  57.3kbits/s    
frame=  686 fps=9.7 q=9.0 size=     473kB time=00:01:08.20 bitrate=  56.8kbits/s    
frame=  693 fps=9.8 q=9.0 size=     473kB time=00:01:08.90 bitrate=  56.3kbits/s    
frame=  699 fps=9.8 q=9.0 size=     473kB time=00:01:09.50 bitrate=  55.8kbits/s    
frame=  706 fps=9.8 q=9.0 size=     474kB time=00:01:10.20 bitrate=  55.3kbits/s    
frame=  712 fps=9.8 q=9.0 size=     474kB time=00:01:10.80 bitrate=  54.8kbits/s    
frame=  719 fps=9.8 q=9.0 size=     474kB time=00:01:11.50 bitrate=  54.3kbits/s    
frame=  728 fps=9.9 q=9.0 size=     474kB time=00:01:12.40 bitrate=  53.7kbits/s    
frame=  735 fps=9.9 q=9.0 size=     474kB time=00:01:13.10 bitrate=  53.2kbits/s    
frame=  748 fps= 10 q=9.0 size=     475kB time=00:01:14.40 bitrate=  52.3kbits/s    
frame=  760 fps= 10 q=10.0 size=     604kB time=00:01:15.60 bitrate=  65.4kbits/s    
frame=  768 fps= 10 q=9.0 size=     604kB time=00:01:16.40 bitrate=  64.7kbits/s    
frame=  773 fps= 10 q=9.0 size=     604kB time=00:01:16.90 bitrate=  64.3kbits/s    
frame=  779 fps= 10 q=9.0 size=     604kB time=00:01:17.50 bitrate=  63.8kbits/s    
frame=  784 fps= 10 q=9.0 size=     604kB time=00:01:18.00 bitrate=  63.5kbits/s    
frame=  790 fps= 10 q=9.0 size=     604kB time=00:01:18.60 bitrate=  63.0kbits/s    
frame=  794 fps= 10 q=9.0 size=     605kB time=00:01:19.00 bitrate=  62.7kbits/s    
frame=  800 fps= 10 q=9.0 size=     605kB time=00:01:19.60 bitrate=  62.2kbits/s    
frame=  807 fps= 10 q=9.0 size=     605kB time=00:01:20.30 bitrate=  61.7kbits/s    
frame=  813 fps= 10 q=9.0 size=     605kB time=00:01:20.90 bitrate=  61.3kbits/s    
frame=  819 fps= 10 q=9.0 size=     605kB time=00:01:21.50 bitrate=  60.8kbits/s    
frame=  825 fps= 10 q=9.0 size=     605kB time=00:01:22.10 bitrate=  60.4kbits/s    
frame=  830 fps= 10 q=9.0 size=     605kB time=00:01:22.60 bitrate=  60.0kbits/s    
frame=  835 fps= 10 q=9.0 size=     606kB time=00:01:23.10 bitrate=  59.7kbits/s    
frame=  840 fps= 10 q=9.0 size=     606kB time=00:01:23.60 bitrate=  59.4kbits/s    
frame=  845 fps= 10 q=9.0 size=     606kB time=00:01:24.10 bitrate=  59.0kbits/s    
frame=  850 fps= 10 q=9.0 size=     606kB time=00:01:24.60 bitrate=  58.7kbits/s    
frame=  856 fps= 10 q=9.0 size=     606kB time=00:01:25.20 bitrate=  58.3kbits/s    
frame=  860 fps= 10 q=9.0 size=     606kB time=00:01:25.60 bitrate=  58.0kbits/s    
frame=  868 fps= 10 q=9.0 size=     608kB time=00:01:26.40 bitrate=  57.7kbits/s    
frame=  874 fps= 10 q=9.0 size=     608kB time=00:01:27.00 bitrate=  57.3kbits/s    
frame=  878 fps= 10 q=9.0 size=     608kB time=00:01:27.40 bitrate=  57.0kbits/s    
frame=  883 fps= 10 q=9.0 size=     609kB time=00:01:27.90 bitrate=  56.7kbits/s    
frame=  891 fps= 10 q=9.0 size=     609kB time=00:01:28.70 bitrate=  56.2kbits/s    
frame=  897 fps= 10 q=9.0 size=     609kB time=00:01:29.30 bitrate=  55.9kbits/s    
frame=  903 fps= 10 q=9.0 size=     609kB time=00:01:29.90 bitrate=  55.5kbits/s    
frame=  909 fps= 10 q=9.0 size=     609kB time=00:01:30.50 bitrate=  55.2kbits/s    
frame=  913 fps= 10 q=9.0 size=     609kB time=00:01:30.90 bitrate=  54.9kbits/s    
frame=  918 fps= 10 q=9.0 size=     610kB time=00:01:31.40 bitrate=  54.6kbits/s    
frame=  923 fps= 10 q=9.0 size=     610kB time=00:01:31.90 bitrate=  54.4kbits/s    
frame=  930 fps= 10 q=9.0 size=     610kB time=00:01:32.60 bitrate=  54.0kbits/s    
frame=  933 fps= 10 q=9.0 size=     610kB time=00:01:32.90 bitrate=  53.8kbits/s    
frame=  937 fps= 10 q=9.0 size=     610kB time=00:01:33.30 bitrate=  53.6kbits/s    
frame=  941 fps= 10 q=9.0 size=     610kB time=00:01:33.70 bitrate=  53.4kbits/s    
frame=  945 fps= 10 q=9.0 size=     611kB time=00:01:34.10 bitrate=  53.1kbits/s    
frame=  950 fps= 10 q=9.0 size=     611kB time=00:01:34.60 bitrate=  52.9kbits/s    
frame=  956 fps= 10 q=9.0 size=     611kB time=00:01:35.20 bitrate=  52.6kbits/s    
frame=  959 fps=9.9 q=9.0 size=     611kB time=00:01:35.50 bitrate=  52.4kbits/s    
frame=  964 fps=9.9 q=9.0 size=     611kB time=00:01:36.00 bitrate=  52.1kbits/s    
frame=  969 fps=9.9 q=9.0 size=     611kB time=00:01:36.50 bitrate=  51.9kbits/s    
frame=  973 fps=9.9 q=9.0 size=     611kB time=00:01:36.90 bitrate=  51.7kbits/s    
frame=  977 fps=9.9 q=9.0 size=     611kB time=00:01:37.30 bitrate=  51.5kbits/s    
frame=  981 fps=9.9 q=9.0 size=     611kB time=00:01:37.70 bitrate=  51.3kbits/s    
frame=  983 fps=9.8 q=9.0 size=     612kB time=00:01:37.90 bitrate=  51.2kbits/s    
frame=  985 fps=9.8 q=9.0 size=     612kB time=00:01:38.10 bitrate=  51.1kbits/s    
frame=  989 fps=9.7 q=9.0 size=     612kB time=00:01:38.50 bitrate=  50.9kbits/s    
frame=  991 fps=9.7 q=9.0 size=     612kB time=00:01:38.70 bitrate=  50.8kbits/s    
frame=  993 fps=9.7 q=9.0 size=     612kB time=00:01:38.90 bitrate=  50.7kbits/s    
frame=  997 fps=9.6 q=9.0 size=     612kB time=00:01:39.30 bitrate=  50.5kbits/s    
frame= 1002 fps=9.6 q=9.0 size=     612kB time=00:01:39.80 bitrate=  50.3kbits/s    
frame= 1007 fps=9.6 q=13.0 size=     741kB time=00:01:40.30 bitrate=  60.5kbits/s    
frame= 1009 fps=9.6 q=10.0 size=     741kB time=00:01:40.50 bitrate=  60.4kbits/s    
frame= 1012 fps=9.6 q=9.0 size=     741kB time=00:01:40.80 bitrate=  60.2kbits/s    
frame= 1018 fps=9.6 q=9.0 size=     741kB time=00:01:41.40 bitrate=  59.9kbits/s    
frame= 1024 fps=9.6 q=9.0 size=     742kB time=00:01:42.00 bitrate=  59.6kbits/s    
frame= 1032 fps=9.6 q=9.0 size=     742kB time=00:01:42.80 bitrate=  59.1kbits/s    
frame= 1038 fps=9.6 q=9.0 size=     742kB time=00:01:43.40 bitrate=  58.8kbits/s    
frame= 1045 fps=9.6 q=9.0 size=     742kB time=00:01:44.10 bitrate=  58.4kbits/s    
frame= 1050 fps=9.6 q=9.0 size=     742kB time=00:01:44.60 bitrate=  58.1kbits/s    
frame= 1058 fps=9.6 q=9.0 size=     743kB time=00:01:45.40 bitrate=  57.7kbits/s    
frame= 1062 fps=9.6 q=9.0 size=     743kB time=00:01:45.80 bitrate=  57.5kbits/s    
frame= 1068 fps=9.6 q=9.0 size=     743kB time=00:01:46.40 bitrate=  57.2kbits/s    
frame= 1077 fps=9.7 q=9.0 size=     743kB time=00:01:47.30 bitrate=  56.7kbits/s    
frame= 1083 fps=9.7 q=9.0 size=     743kB time=00:01:47.90 bitrate=  56.4kbits/s    
frame= 1087 fps=9.7 q=9.0 size=     743kB time=00:01:48.30 bitrate=  56.2kbits/s    
frame= 1093 fps=9.7 q=9.0 size=     743kB time=00:01:48.90 bitrate=  55.9kbits/s    
frame= 1100 fps=9.7 q=9.0 size=     744kB time=00:01:49.60 bitrate=  55.6kbits/s    
frame= 1105 fps=9.7 q=9.0 size=     744kB time=00:01:50.10 bitrate=  55.3kbits/s    
frame= 1113 fps=9.7 q=9.0 size=     744kB time=00:01:50.90 bitrate=  55.0kbits/s    
frame= 1119 fps=9.7 q=9.0 size=     744kB time=00:01:51.50 bitrate=  54.7kbits/s    
frame= 1127 fps=9.7 q=9.0 size=     744kB time=00:01:52.30 bitrate=  54.3kbits/s    
frame= 1136 fps=9.8 q=9.0 size=     745kB time=00:01:53.20 bitrate=  53.9kbits/s    
frame= 1142 fps=9.8 q=9.0 size=     745kB time=00:01:53.80 bitrate=  53.6kbits/s    
frame= 1147 fps=9.8 q=9.0 size=     745kB time=00:01:54.30 bitrate=  53.4kbits/s    
frame= 1153 fps=9.8 q=9.0 size=     745kB time=00:01:54.90 bitrate=  53.1kbits/s    
frame= 1156 fps=9.8 q=9.0 size=     745kB time=00:01:55.20 bitrate=  53.0kbits/s    
frame= 1162 fps=9.8 q=9.0 size=     745kB time=00:01:55.80 bitrate=  52.7kbits/s    
frame= 1165 fps=9.7 q=9.0 size=     745kB time=00:01:56.10 bitrate=  52.6kbits/s    
frame= 1169 fps=9.7 q=11.0 size=     745kB time=00:01:56.50 bitrate=  52.4kbits/s    
frame= 1171 fps=9.7 q=10.0 size=     750kB time=00:01:56.70 bitrate=  52.6kbits/s    
frame= 1174 fps=9.7 q=9.0 size=     750kB time=00:01:57.00 bitrate=  52.5kbits/s    
frame= 1176 fps=9.6 q=9.0 size=     750kB time=00:01:57.20 bitrate=  52.5kbits/s    
frame= 1178 fps=9.6 q=9.0 size=     751kB time=00:01:57.40 bitrate=  52.4kbits/s    
frame= 1182 fps=9.6 q=9.0 size=     751kB time=00:01:57.80 bitrate=  52.2kbits/s    
frame= 1186 fps=9.6 q=9.0 size=     751kB time=00:01:58.20 bitrate=  52.1kbits/s    
frame= 1189 fps=9.6 q=9.0 size=     751kB time=00:01:58.50 bitrate=  51.9kbits/s    
frame= 1192 fps=9.6 q=9.0 size=     751kB time=00:01:58.80 bitrate=  51.8kbits/s    
frame= 1195 fps=9.5 q=9.0 size=     751kB time=00:01:59.10 bitrate=  51.7kbits/s    
--40005LOG 12:33:11:893605200 Trapped SIGTERM or SIGINT so shutting down ffmpeg gracefully...
--40005LOG 12:33:12:003831600 Will kill VID_TOOL_PID=867 ...
frame= 1198 fps=9.5 q=-1.0 Lsize=     752kB time=00:01:59.80 bitrate=  51.4kbits/s    
video:744kB audio:0kB subtitle:0kB other streams:0kB global headers:0kB muxing overhead: 1.115711%
[libx264 @ 0x164d320] frame I:5     Avg QP: 8.80  size:108349
[libx264 @ 0x164d320] frame P:1193  Avg QP: 9.18  size:   184
[libx264 @ 0x164d320] mb I  I16..4: 100.0%  0.0%  0.0%
[libx264 @ 0x164d320] mb P  I16..4:  0.2%  0.0%  0.0%  P16..4:  0.2%  0.0%  0.0%  0.0%  0.0%    skip:99.7%
[libx264 @ 0x164d320] coded y,uvDC,uvAC intra: 16.3% 14.3% 14.1% inter: 0.1% 0.1% 0.0%
[libx264 @ 0x164d320] i16 v,h,dc,p: 71% 27%  2%  0%
[libx264 @ 0x164d320] i8c dc,h,v,p: 70% 26%  4%  0%
[libx264 @ 0x164d320] kb/s:50.80
Exiting normally, received signal 2.
--40005LOG 12:33:13:088739500 Tried to kill -SIGTERM VID_TOOL_PID=867
--40005LOG 12:33:13:147300800 Waiting up to 6s for VID_TOOL_PID=867 to end with SIGTERM...
--40005LOG 12:33:13:240120300 wait_pid successfully managed to SIGTERM:VID_TOOL_PID=867 within less than 6s
--40005LOG 12:33:13:275699700 Will try to fix the videos...
--40005LOG 12:33:13:944114800 Fixing perms for /home/seluser/videos/vid_chrome_or_firefox_40005.mkv*
--40005LOG 12:33:14:263531200 Changing video encoding from mkv to mp4...
--40005LOG 12:33:34:544038600 Conversion from mkv to mp4 FAILED! in within the 20s
--40005LOG 12:33:34:601605800 Optimizing /home/seluser/videos/vid_chrome_or_firefox_40005.mp4 for HTTP streaming...
Error opening file /home/seluser/videos/vid_chrome_or_firefox_40005.mp4: Invalid IsoMedia File
--40005LOG 12:33:34:786480600 MP4Box got errors meaning the mp4 video file is corrupted, trying again...
Error opening file /home/seluser/videos/vid_chrome_or_firefox_40005.mp4: Invalid IsoMedia File
--40005LOG 12:33:35:920119900 MP4Box got errors meaning the mp4 video file is corrupted, trying again...
Error opening file /home/seluser/videos/vid_chrome_or_firefox_40005.mp4: Invalid IsoMedia File
--40005LOG 12:33:37:026054200 MP4Box got errors meaning the mp4 video file is corrupted, trying again...
Error opening file /home/seluser/videos/vid_chrome_or_firefox_40005.mp4: Invalid IsoMedia File
--40005LOG 12:33:38:090995500 MP4Box got errors meaning the mp4 video file is corrupted, trying again...
Error opening file /home/seluser/videos/vid_chrome_or_firefox_40005.mp4: Invalid IsoMedia File
--40005LOG 12:33:39:191985300 MP4Box got errors meaning the mp4 video file is corrupted, trying again...
Error opening file /home/seluser/videos/vid_chrome_or_firefox_40005.mp4: Invalid IsoMedia File
--40005LOG 12:33:40:281698100 MP4Box got errors meaning the mp4 video file is corrupted, trying again...
Error opening file /home/seluser/videos/vid_chrome_or_firefox_40005.mp4: Invalid IsoMedia File
--40005LOG 12:33:41:378794400 MP4Box got errors meaning the mp4 video file is corrupted, trying again...
Error opening file /home/seluser/videos/vid_chrome_or_firefox_40005.mp4: Invalid IsoMedia File
--40005LOG 12:33:42:483546700 MP4Box got errors meaning the mp4 video file is corrupted, trying again...
--40005LOG 12:33:42:658497600 Failed! to mp4box_retry.sh within 8s
--40005LOG 12:33:42:693282300 ffmpeg shutdown complete.
